<svg id="Logo_Blazing_SERVERS" data-name="Logo Blazing SERVERS" xmlns="http://www.w3.org/2000/svg" width="387" height="354" viewBox="0 0 387 354">
  <metadata><?xpacket begin="﻿" id="W5M0MpCehiHzreSzNTczkc9d"?>
<x:xmpmeta xmlns:x="adobe:ns:meta/" x:xmptk="Adobe XMP Core 5.6-c140 79.160451, 2017/05/06-01:08:21        ">
   <rdf:RDF xmlns:rdf="http://www.w3.org/1999/02/22-rdf-syntax-ns#">
      <rdf:Description rdf:about=""/>
   </rdf:RDF>
</x:xmpmeta>
                                                                                                    
                                                                                                    
                                                                                                    
                                                                                                    
                                                                                                    
                                                                                                    
                                                                                                    
                                                                                                    
                                                                                                    
                                                                                                    
                                                                                                    
                                                                                                    
                                                                                                    
                                                                                                    
                                                                                                    
                                                                                                    
                                                                                                    
                                                                                                    
                                                                                                    
                                                                                                    
                           
<?xpacket end="w"?></metadata>
<defs>
    <style>
      .cls-1 {
        font-size: 72px;
        font-family: Expressa-Heavy;
      }

      .cls-1, .cls-4 {
        fill: #231f20;
      }

      .cls-2 {
        fill: #094fb1;
      }

      .cls-2, .cls-3 {
        fill-rule: evenodd;
      }

      .cls-3 {
        fill: #fff;
      }

      .cls-4 {
        font-size: 71.141px;
        font-family: Metropolis;
        font-weight: 800;
      }
    </style>
  </defs>
  <text id="blazing" class="cls-1" transform="translate(-6.844 314.411) scale(1.716)">blazing</text>
  <path id="Заливка_цветом_1_копія" data-name="Заливка цветом 1 копія" class="cls-2" d="M562.93,344c3.539,27.882-14.527,34.819-14.053,57.634,0.1,3.466,3.157,9.529,7.026,12.652,3.009,2.908,9.5,5.753,18.27,4.717,10.453-1.576,14.084-7.184,15.459-10.34,4.115-11.038.878-15.941-1.406-26.709,46.622,23.011,27.463,52.384,9.838,71.692-2.275,5-.629,10.46.089,11.956,2.319,5.138,5.647,7.133,9.475,8.507,14.33,3.457,19.187-6.316,28.38-12.029,3.325,129.566-169.645,127.883-178.478,19.68,0.468,0,.937,4.217,1.405,4.217,4.483,2.825,8.1,5.213,14.053,4.217,6.423-.974,10.08-3.583,12.649-8.434,6.437-20.878-11.077-22.008-14.054-36.549C461.082,393.914,534.928,383.218,562.93,344Z" transform="translate(-349 -344)"/>
  <path id="b" class="cls-3" d="M516.417,502.271q-2.554,14.478,5.2,23.891t22.36,9.415a37.837,37.837,0,0,0,25.474-9.351A39.707,39.707,0,0,0,582.9,502.271q2.527-14.346-5.022-23.827t-21.644-9.48a35.882,35.882,0,0,0-4.209.257,35.292,35.292,0,0,0-4.984,1.024l-3.364,19.088q2.567-.77,3.893-1.025a15.918,15.918,0,0,1,2.992-.256q6.789,0,10.392,3.907t2.474,10.312a16.19,16.19,0,0,1-5.636,9.8,15.57,15.57,0,0,1-10.361,3.907q-6.149,0-9.269-4.1T536.151,501.5L549,429l-25,28Z" transform="translate(-349 -344)"/>
  <text id="servers" class="cls-4" transform="translate(115.536 352.905) scale(0.773)">servers</text>
</svg>
